<svg width="40" height="50" viewBox="0 0 40 50" fill="none" xmlns="http://www.w3.org/2000/svg">
<path fill-rule="evenodd" clip-rule="evenodd" d="M6.64251 32.6483C4.76337 30.2927 4.9143 26.8504 7.09529 24.6694C9.20729 22.5574 12.5021 22.3491 14.8474 24.0444L14.3626 24.5292C14.1666 24.7252 14.1599 25.0361 14.3546 25.2309L15.0752 25.9514C15.2667 26.143 15.583 26.1373 15.7768 25.9434L16.2522 25.468C17.8969 27.8089 17.673 31.0623 15.5806 33.1547C13.3982 35.3371 9.95288 35.4868 7.5972 33.6039C8.06912 33.4569 8.51546 33.1312 8.51546 33.1312C8.82389 32.8796 8.7528 32.6909 8.55977 32.4979L7.75186 31.6899C7.56362 31.5017 7.35303 31.4246 7.10853 31.7243C7.10853 31.7243 6.78678 32.1738 6.64251 32.6483ZM29.9767 8.9151L15.5624 23.3294C12.819 21.2481 8.89148 21.459 6.38819 23.9623C3.65452 26.696 3.65452 31.1281 6.38819 33.8618C9.12186 36.5955 13.554 36.5955 16.2877 33.8618C18.7716 31.3779 18.9985 27.4918 16.9686 24.7517L31.6075 10.1127L34.5258 8.39683C34.8198 8.21081 34.7458 7.77221 34.3791 7.40545L32.844 5.87042C32.4864 5.51276 32.0334 5.43796 31.8526 5.72366L29.9767 8.9151ZM10.4137 28.6949L11.5551 29.8363C11.6304 29.9116 11.6262 30.038 11.5551 30.1091L11.1207 30.5435C11.0454 30.6188 10.9145 30.6099 10.848 30.5434L9.70659 29.402C9.63124 29.3267 9.63542 29.2004 9.7065 29.1293L10.1409 28.6948C10.2162 28.6195 10.3472 28.6284 10.4137 28.6949Z" fill="black"/>
</svg>
