<svg width="40" height="50" viewBox="0 0 40 50" fill="none" xmlns="http://www.w3.org/2000/svg">
<path fill-rule="evenodd" clip-rule="evenodd" d="M4 11V30C4 30.5523 4.44772 31 5 31H35C35.5523 31 36 30.5523 36 30V11C36 10.4477 35.5523 10 35 10H5C4.44772 10 4 10.4477 4 11ZM6 12H34V29H30L27 25H13L10 29H6V12ZM13 21C14.1046 21 15 20.1046 15 19C15 17.8954 14.1046 17 13 17C11.8954 17 11 17.8954 11 19C11 20.1046 11.8954 21 13 21ZM27 21C28.1046 21 29 20.1046 29 19C29 17.8954 28.1046 17 27 17C25.8954 17 25 17.8954 25 19C25 20.1046 25.8954 21 27 21ZM17 18H23V20H17V18Z" fill="black"/>
</svg>
