<svg width="40" height="50" viewBox="0 0 40 50" fill="none" xmlns="http://www.w3.org/2000/svg">
<path fill-rule="evenodd" clip-rule="evenodd" d="M4.50264 14H35.4974C35.775 14 36 14.214 36 14.5047V15.4953C36 15.774 35.7786 16 35.4974 16H4.50264C4.22504 16 4 15.786 4 15.4953V14.5047C4 14.226 4.22143 14 4.50264 14ZM4.50264 34H35.4974C35.775 34 36 34.214 36 34.5047V35.4953C36 35.774 35.7786 36 35.4974 36H4.50264C4.22504 36 4 35.786 4 35.4953V34.5047C4 34.226 4.22143 34 4.50264 34ZM10.5521 13.2524L35.5998 6.11277C36.2363 5.93134 36.6103 5.32003 36.4325 4.73837C36.2559 4.16075 35.6034 3.85889 34.9736 4.06461L10.2157 12.152C9.92399 12.2473 9.75757 12.5536 9.84492 12.8393L9.86039 12.89C9.94731 13.1743 10.2547 13.3372 10.5521 13.2524ZM34 16H29L34 34V16ZM6 16H11L6 34V16ZM11 16H20L15.5 34L11 16ZM20 16H29L24.5 34L20 16Z" fill="black"/>
</svg>
