<svg width="40" height="50" viewBox="0 0 40 50" fill="none" xmlns="http://www.w3.org/2000/svg">
<path fill-rule="evenodd" clip-rule="evenodd" d="M8.02393 12.0894C6.19225 14.5765 5.1099 17.6495 5.1099 20.9753C5.1099 29.2595 11.8256 35.9753 20.1099 35.9753C28.3942 35.9753 35.1099 29.2595 35.1099 20.9753C35.1099 17.6121 34.0031 14.5075 32.1338 12.0057L36.8151 6.24337C37.1967 5.77366 37.1563 5.11962 36.718 4.77723C36.2828 4.4372 35.6358 4.55334 35.2719 5.03772L31.0274 10.6889C28.2921 7.78686 24.4126 5.97527 20.1099 5.97527C15.7693 5.97527 11.8593 7.81897 9.12027 10.766L4.81785 5.03772C4.45404 4.55334 3.80697 4.4372 3.37176 4.77723C2.93352 5.11962 2.89309 5.77366 3.27468 6.24337L8.02393 12.0894ZM10.3437 12.3948C12.7261 9.68523 16.2183 7.97527 20.1099 7.97527C23.9633 7.97527 27.4252 9.65187 29.8058 12.3154L20.9699 24.0794C20.8014 24.3037 20.8374 24.6205 21.0527 24.7886L21.0908 24.8184C21.305 24.9858 21.6207 24.9466 21.799 24.7272L30.8268 13.6146C32.2669 15.7073 33.1099 18.2428 33.1099 20.9753C33.1099 28.155 27.2896 33.9753 20.1099 33.9753C12.9302 33.9753 7.1099 28.155 7.1099 20.9753C7.1099 18.2806 7.92977 15.7774 9.33366 13.7016L18.2908 24.7272C18.4691 24.9466 18.7848 24.9858 18.999 24.8184L19.0371 24.7886C19.2524 24.6205 19.2884 24.3037 19.1199 24.0794L10.3437 12.3948Z" fill="black"/>
</svg>
