<svg width="100" height="125" viewBox="0 0 100 125" fill="none" xmlns="http://www.w3.org/2000/svg">
<path d="M86 50C86 60.15 82.048 69.693 74.87 76.87C74.087 77.651 72.825 77.651 72.042 76.87C71.262 76.089 71.262 74.823 72.042 74.042C78.464 67.62 82 59.082 82 50C82 40.918 78.464 32.38 72.042 25.958C71.262 25.177 71.262 23.911 72.042 23.13C72.823 22.349 74.089 22.349 74.87 23.13C82.048 30.307 86 39.85 86 50ZM69.213 28.787C68.432 28.006 67.166 28.006 66.385 28.787C65.604 29.568 65.604 30.834 66.385 31.615C71.296 36.526 74 43.055 74 50C74 56.945 71.296 63.475 66.385 68.385C65.604 69.166 65.604 70.432 66.385 71.213C67.166 71.994 68.432 71.994 69.213 71.213C74.879 65.547 78 58.014 78 50C78 41.986 74.879 34.453 69.213 28.787ZM63.557 34.444C62.776 33.663 61.51 33.663 60.729 34.444C59.949 35.225 59.949 36.491 60.729 37.272C64.128 40.671 66 45.192 66 50C66 54.809 64.128 59.329 60.729 62.729C59.949 63.509 59.949 64.776 60.729 65.557C61.514 66.34 62.777 66.337 63.557 65.557C67.712 61.4 70 55.876 70 50C70 44.124 67.712 38.599 63.557 34.444ZM22 36C18.686 36 16 38.686 16 42V58C16 61.314 18.686 64 22 64H30L42 72.57V27.429L30 36H22ZM51 20H47C45.343 20 44 21.343 44 23V77C44 78.657 45.343 80 47 80H51C52.657 80 54 78.657 54 77V23C54 21.343 52.657 20 51 20Z" fill="black"/>
</svg>
