<svg width="40" height="50" viewBox="0 0 40 50" fill="none" xmlns="http://www.w3.org/2000/svg">
<path fill-rule="evenodd" clip-rule="evenodd" d="M6.00293 8H9V23.0007H12V30.9993C12 31.552 11.5621 32 10.9971 32H6.00293C5.44903 32 5 31.5525 5 30.9993V9.00069C5 8.44803 5.43788 8 6.00293 8ZM16.9971 23.0007V8H16V23.0007H13V30.9993C13 31.552 13.4379 32 14.0029 32H18.9971C19.551 32 20 31.5525 20 30.9993V23.0007H16.9971ZM24.9971 23.0007V8H24V23.0007H21V30.9993C21 31.552 21.4379 32 22.0029 32H26.9971C27.551 32 28 31.5525 28 30.9993V23.0007H24.9971ZM10 8H15V22H10V8ZM34.9971 8H32V23.0007H29V30.9993C29 31.552 29.4379 32 30.0029 32H34.9971C35.551 32 36 31.5525 36 30.9993V9.00069C36 8.44803 35.5621 8 34.9971 8ZM18 8H23V22H18V8ZM26 8H31V22H26V8Z" fill="black"/>
</svg>
