<svg width="100" height="125" viewBox="0 0 100 125" fill="none" xmlns="http://www.w3.org/2000/svg">
<path d="M82 50C82 55.876 79.712 61.4 75.557 65.557C74.777 66.337 73.514 66.34 72.729 65.557C71.949 64.776 71.949 63.509 72.729 62.729C76.128 59.329 78 54.809 78 50C78 45.192 76.128 40.671 72.729 37.272C71.949 36.491 71.949 35.225 72.729 34.444C73.51 33.663 74.776 33.663 75.557 34.444C79.712 38.599 82 44.124 82 50ZM26 36C22.686 36 20 38.686 20 42V58C20 61.314 22.686 64 26 64H34L46 72.57V27.429L34 36H26ZM55 20H51C49.343 20 48 21.343 48 23V77C48 78.657 49.343 80 51 80H55C56.657 80 58 78.657 58 77V23C58 21.343 56.657 20 55 20Z" fill="black"/>
</svg>
