<svg width="40" height="50" viewBox="0 0 40 50" fill="none" xmlns="http://www.w3.org/2000/svg">
<path fill-rule="evenodd" clip-rule="evenodd" d="M13.992 6.99999C12.7872 4.38384 10.716 3.78135 9 3.99999C7.89805 4.1404 7 4.89542 7 5.99999C7 7.10456 7.89543 7.99999 9 7.99999C9.77429 7.99999 10.4519 7.57067 10.7782 6.91639C11.3357 5.79833 12.9676 8.72378 11.5012 12.0544C9.68103 16.1886 6.486 21.1752 7.20215 26.1278C8.10156 32.3478 12.0214 35.9554 20 35.9554C27.9786 35.9554 31.8984 32.3478 32.7979 26.1278C33.514 21.1752 30.319 16.1886 28.4988 12.0544C27.0324 8.72378 28.6643 5.79833 29.2218 6.91639C29.5481 7.57067 30.2257 7.99999 31 7.99999C32.1046 7.99999 33 7.10456 33 5.99999C33 4.89542 32.102 4.1404 31 3.99999C29.284 3.78135 27.2128 4.38384 26.008 6.99999H13.992ZM14.4318 8.99999C14.4831 13.2745 10.4602 19.9872 11.3357 25.3035C11.7243 27.6632 13.2262 29.1217 15 29.9802V8.99999H14.4318ZM16 30.3946C16.6646 30.628 17.3443 30.7909 18 30.8971V8.99999H16V30.3946ZM19 31.0191C19.3499 31.048 19.6856 31.0611 20 31.0611C20.3144 31.0611 20.6501 31.048 21 31.0191V8.99999H19V31.0191ZM22 30.8971C22.6557 30.7909 23.3354 30.628 24 30.3946V8.99999H22V30.8971ZM25 29.9802C26.7738 29.1217 28.2757 27.6632 28.6643 25.3035C29.5398 19.9872 25.5169 13.2745 25.5682 8.99999H25V29.9802V29.9802Z" fill="black"/>
</svg>
