<svg width="40" height="50" viewBox="0 0 40 50" fill="none" xmlns="http://www.w3.org/2000/svg">
<g clip-path="url(#clip0)">
<path fill-rule="evenodd" clip-rule="evenodd" d="M31.4784 11.1502L25.1798 17.4489C25.2584 21.7114 21.9722 31.9628 19.0858 34.8492C15.4964 38.4386 10.2153 37.9996 6.35787 34.1421C2.50039 30.2847 2.06138 25.0036 5.65076 21.4142C8.53884 18.5261 18.8001 15.2379 23.0583 15.3204L29.3388 9.03985L31.4602 5.50431L34.6421 5.85786L34.9957 9.03985L31.4784 11.1502ZM22.1262 16.2525C18.0245 16.6327 8.86061 19.6186 6.35787 22.1213C3.51883 24.9604 3.53234 28.9882 6.07293 32.3058L7.27934 31.0993C7.35621 31.0225 7.47972 31.0214 7.55771 31.0993L9.40066 32.9423C9.47753 33.0192 9.47865 33.1427 9.40066 33.2207L8.19425 34.4271C11.5118 36.9677 15.5396 36.9812 18.3787 34.1421C20.8798 31.641 23.8634 22.4875 24.2468 18.3819L22.7932 19.8354C22.5993 20.0293 22.2051 19.9569 21.9172 19.6691L20.8345 18.5864C20.5419 18.2938 20.4723 17.9064 20.6682 17.7105L22.1262 16.2525ZM8.96774 24.0241L16.4759 31.5323C16.5505 31.6068 16.5457 31.7325 16.4746 31.8036L16.0401 32.238C15.9648 32.3133 15.8366 32.3071 15.7688 32.2394L8.26064 24.7312C8.18608 24.6566 8.19089 24.5309 8.26197 24.4599L8.6964 24.0254C8.7717 23.9501 8.89998 23.9563 8.96774 24.0241ZM15.5503 24.9497C16.9171 26.3166 18.8166 26.6332 19.7929 25.6569C20.7692 24.6805 20.4526 22.781 19.0858 21.4142C17.719 20.0474 15.8195 19.7308 14.8431 20.7071C13.8668 21.6834 14.1834 23.5829 15.5503 24.9497Z" fill="black"/>
</g>
<defs>
<clipPath id="clip0">
<rect width="40" height="50" fill="white"/>
</clipPath>
</defs>
</svg>
