<svg width="100" height="125" viewBox="0 0 100 125" fill="none" xmlns="http://www.w3.org/2000/svg">
<path d="M19.6 88.5C19.6 93.5 23.6 97.5 28.6 97.5H71.3C76.3 97.5 80.3 93.5 80.3 88.5V28.9H19.6V88.5ZM64.2 39.9H69V86.5H64.2V39.9ZM47.6 39.9H52.4V86.5H47.6V39.9ZM31.1 39.9H35.9V86.5H31.1V39.9V39.9Z" fill="black"/>
<path d="M83.8 12.9H63L61.8 7.29999C61.2 4.39999 58.7 2.39999 55.7 2.39999H44.3C41.4 2.39999 38.9 4.39999 38.2 7.29999L37 12.9H16.2C15.2 12.9 14.4 13.7 14.4 14.7V22.3C14.4 23.3 15.2 24.1 16.2 24.1H83.9C84.9 24.1 85.7 23.3 85.7 22.3V14.7C85.6 13.7 84.8 12.9 83.8 12.9ZM42.9 8.39999C43 7.69999 43.6 7.29999 44.3 7.29999H55.7C56.4 7.29999 57 7.79999 57.1 8.39999L58.1 12.9H41.9L42.9 8.39999Z" fill="black"/>
</svg>
