<svg width="40" height="50" viewBox="0 0 40 50" fill="none" xmlns="http://www.w3.org/2000/svg">
<path fill-rule="evenodd" clip-rule="evenodd" d="M19 13.5084V9.99981C19 9.44372 18.5523 9 18 9C17.4439 9 17 9.44763 17 9.99981V13.6823C16.7986 13.8504 16.6136 14.0679 16.4547 14.3349L6.00052 31.8979C5.139 33.3452 5.93716 34.75 7.62221 34.75H25.9033C26.3175 34.75 26.6533 34.4142 26.6533 34C26.6533 33.5858 26.3175 33.25 25.9033 33.25H7.62221C7.10098 33.25 7.02298 33.1128 7.28946 32.6651L17.7436 15.1021C18.0202 14.6374 18.2242 14.6379 18.5031 15.1064L27.1453 29.6254C27.3572 29.9814 27.8175 30.0982 28.1734 29.8863C28.5294 29.6744 28.6461 29.2141 28.4343 28.8582L19.792 14.3392C19.5698 13.966 19.2971 13.689 19 13.5084ZM33.1 30.3345C33.6978 30.7667 34.1 31.5746 34.1 32.5C34.1 33.8807 33.2045 35 32.1 35C30.9954 35 30.1 33.8807 30.1 32.5C30.1 31.5746 30.5022 30.7667 31.1 30.3345V6.00307C31.1 5.44909 31.5438 5 32.1 5C32.6522 5 33.1 5.43892 33.1 6.00307V30.3345V30.3345Z" fill="black"/>
</svg>
