<svg width="40" height="50" viewBox="0 0 40 50" fill="none" xmlns="http://www.w3.org/2000/svg">
<path fill-rule="evenodd" clip-rule="evenodd" d="M23.04 22V25.4971C23.04 26.3265 23.7124 27 24.54 27C25.3737 27 26.04 26.3307 26.04 25.4954V24.5H28.04V25.4954C28.04 27.4333 26.4803 29 24.54 29C22.6071 29 21.04 27.4304 21.04 25.4971V22H19.04V27C19.04 27 19.04 32 24.04 32C29.04 32 29.04 27 29.04 27V24.5V20C29.04 20 29.04 17 26.04 17C23.04 17 23.04 20 23.04 20H23.5382C26.0232 20 28.04 22.0174 28.04 24.5H26.04C26.04 23.1218 24.9185 22 23.5382 22H23.04ZM21.0627 20C21.3167 17.1979 23.675 15 26.54 15C29.576 15 32.04 17.4659 32.04 20.5V24.5V27C32.04 27 32.04 36 23.04 36C14.04 36 14.04 27 14.04 27V22H9.04V23H8.04V19H9.04V20H14.04V17C14.04 13 8.22746 5.59843 8.22746 5.59843C7.57164 4.71564 7.93093 4 9.03742 4H24.0426C25.1457 4 25.5023 4.7109 24.8525 5.59843C24.8525 5.59843 19.04 13 19.04 17V20H21.0627Z" fill="black"/>
</svg>
