<svg xmlns="http://www.w3.org/2000/svg" xmlns:xlink="http://www.w3.org/1999/xlink" xmlns:sketch="http://www.bohemiancoding.com/sketch/ns" viewBox="0 0 40 50" version="1.1" x="0px" y="0px"><title>banjo_string_instrument_music</title><desc>Created with Sketch.</desc><g stroke="none" stroke-width="1" fill="none" fill-rule="evenodd" sketch:type="MSPage"><path d="M19.3217522,38.4620892 C16.3273633,38.1252028 14,35.5843938 14,32.5 C14,29.5131778 16.1824449,27.0360928 19.0396341,26.5764458 L19.0396341,26.5764458 L19.0396341,27.2621159 C19.0396341,27.53924 19.2546915,27.7638935 19.5301127,27.7638935 L20.5491556,27.7638935 C20.8200394,27.7638935 21.0396341,27.5362544 21.0396341,27.2621159 L21.0396341,26.5897449 C23.8578225,27.0820531 26,29.5408603 26,32.5 C26,35.5863534 23.6696785,38.1284311 20.6725397,38.4627287 C20.9022576,38.0250605 20.9876098,37.479187 20.9876098,37.479187 C21.0277963,37.08319 20.844068,37 20.571086,37 L19.428524,37 C19.1623132,37 18.9588608,37.094367 18.9979131,37.479187 C18.9979131,37.479187 19.0882337,38.024529 19.3217522,38.4620892 Z M19.0396341,5.18039473 L19.0396341,25.5653353 C15.6280387,26.0334242 13,28.9598065 13,32.5 C13,36.3659932 16.1340068,39.5 20,39.5 C23.8659932,39.5 27,36.3659932 27,32.5 C27,28.9872745 24.4125845,26.0788722 21.0396341,25.576674 L21.0396341,25.576674 L21.0396341,4.87409758 L21.8898475,1.59723854 C21.9662018,1.2578125 21.6037353,1 21.0850694,1 L18.9142017,1 C18.4084012,1 18.0352244,1.2673928 18.1094236,1.59723854 L19.0396341,5.18039473 L19.0396341,5.18039473 Z M19.1929283,33 L20.8070717,33 C20.9136231,33 21,33.0922852 21,33.1928101 L21,33.8071899 C21,33.913676 20.901123,34 20.8070717,34 L19.1929283,34 C19.0863769,34 19,33.9077148 19,33.8071899 L19,33.1928101 C19,33.086324 19.098877,33 19.1929283,33 Z" fill="#000000" sketch:type="MSShapeGroup" transform="translate(20.000000, 20.250000) rotate(45.000000) translate(-20.000000, -20.250000) "/></g><text x="0" y="55" fill="#000000" font-size="5px" font-weight="bold" font-family="'Helvetica Neue', Helvetica, Arial-Unicode, Arial, Sans-serif">Created by Pham Thi Dieu Linh</text><text x="0" y="60" fill="#000000" font-size="5px" font-weight="bold" font-family="'Helvetica Neue', Helvetica, Arial-Unicode, Arial, Sans-serif">from the Noun Project</text></svg>