<svg xmlns="http://www.w3.org/2000/svg" xmlns:xlink="http://www.w3.org/1999/xlink" xmlns:sketch="http://www.bohemiancoding.com/sketch/ns" viewBox="0 0 40 50" version="1.1" x="0px" y="0px"><title>cassette_playback_audio_sound_music_tape</title><desc>Created with Sketch.</desc><g stroke="none" stroke-width="1" fill="none" fill-rule="evenodd" sketch:type="MSPage"><path d="M4,11 L4,30 C4,30.5522847 4.44771525,31 5,31 L35,31 C35.5522847,31 36,30.5522847 36,30 L36,11 C36,10.4477153 35.5522847,10 35,10 L5,10 C4.44771525,10 4,10.4477153 4,11 Z M6,12 L34,12 L34,29 L30,29 L27,25 L13,25 L10,29 L6,29 L6,12 Z M13,21 C14.1045695,21 15,20.1045695 15,19 C15,17.8954305 14.1045695,17 13,17 C11.8954305,17 11,17.8954305 11,19 C11,20.1045695 11.8954305,21 13,21 Z M27,21 C28.1045695,21 29,20.1045695 29,19 C29,17.8954305 28.1045695,17 27,17 C25.8954305,17 25,17.8954305 25,19 C25,20.1045695 25.8954305,21 27,21 Z M17,18 L23,18 L23,20 L17,20 L17,18 Z" fill="#000000" sketch:type="MSShapeGroup"/></g><text x="0" y="55" fill="#000000" font-size="5px" font-weight="bold" font-family="'Helvetica Neue', Helvetica, Arial-Unicode, Arial, Sans-serif">Created by Pham Thi Dieu Linh</text><text x="0" y="60" fill="#000000" font-size="5px" font-weight="bold" font-family="'Helvetica Neue', Helvetica, Arial-Unicode, Arial, Sans-serif">from the Noun Project</text></svg>