<svg xmlns="http://www.w3.org/2000/svg" xmlns:xlink="http://www.w3.org/1999/xlink" xmlns:sketch="http://www.bohemiancoding.com/sketch/ns" viewBox="0 0 40 50" version="1.1" x="0px" y="0px"><title>music_disc_record_soud_audio_</title><desc>Created with Sketch.</desc><g stroke="none" stroke-width="1" fill="none" fill-rule="evenodd" sketch:type="MSPage"><path d="M20,36 C28.836556,36 36,28.836556 36,20 C36,11.163444 28.836556,4 20,4 C11.163444,4 4,11.163444 4,20 C4,28.836556 11.163444,36 20,36 Z M20,29 C24.9705627,29 29,24.9705627 29,20 C29,15.0294373 24.9705627,11 20,11 C15.0294373,11 11,15.0294373 11,20 C11,24.9705627 15.0294373,29 20,29 Z M20,23 C21.6568542,23 23,21.6568542 23,20 C23,18.3431458 21.6568542,17 20,17 C18.3431458,17 17,18.3431458 17,20 C17,21.6568542 18.3431458,23 20,23 Z" fill="#000000" sketch:type="MSShapeGroup"/></g><text x="0" y="55" fill="#000000" font-size="5px" font-weight="bold" font-family="'Helvetica Neue', Helvetica, Arial-Unicode, Arial, Sans-serif">Created by Pham Thi Dieu Linh</text><text x="0" y="60" fill="#000000" font-size="5px" font-weight="bold" font-family="'Helvetica Neue', Helvetica, Arial-Unicode, Arial, Sans-serif">from the Noun Project</text></svg>