<svg xmlns="http://www.w3.org/2000/svg" xmlns:xlink="http://www.w3.org/1999/xlink" xmlns:sketch="http://www.bohemiancoding.com/sketch/ns" viewBox="0 0 40 50" version="1.1" x="0px" y="0px"><title>drum_instrument_music</title><desc>Created with Sketch.</desc><g stroke="none" stroke-width="1" fill="none" fill-rule="evenodd" sketch:type="MSPage"><path d="M4.50264359,14 L35.4973564,14 C35.7749588,14 36,14.214035 36,14.5046844 L36,15.4953156 C36,15.7740451 35.7785687,16 35.4973564,16 L4.50264359,16 C4.2250412,16 4,15.785965 4,15.4953156 L4,14.5046844 C4,14.2259549 4.22143126,14 4.50264359,14 Z M4.50264359,34 L35.4973564,34 C35.7749588,34 36,34.214035 36,34.5046844 L36,35.4953156 C36,35.7740451 35.7785687,36 35.4973564,36 L4.50264359,36 C4.2250412,36 4,35.785965 4,35.4953156 L4,34.5046844 C4,34.2259549 4.22143126,34 4.50264359,34 Z M10.5520926,13.2524383 L35.5997552,6.11277292 C36.236267,5.93133958 36.6103319,5.32002742 36.4325027,4.7383742 C36.2559047,4.16074809 35.6033522,3.85888757 34.9735697,4.06461252 L10.2156661,12.1520369 C9.92398531,12.2473174 9.75756783,12.5536368 9.84491635,12.8393409 L9.86039156,12.889958 C9.94731294,13.174265 10.2546928,13.3372101 10.5520926,13.2524383 Z M34,16 L29,16 L34,34 L34,16 Z M6,16 L11,16 L6,34 L6,16 Z M11,16 L20,16 L15.5,34 L11,16 Z M20,16 L29,16 L24.5,34 L20,16 Z" fill="#000000" sketch:type="MSShapeGroup"/></g><text x="0" y="55" fill="#000000" font-size="5px" font-weight="bold" font-family="'Helvetica Neue', Helvetica, Arial-Unicode, Arial, Sans-serif">Created by Pham Thi Dieu Linh</text><text x="0" y="60" fill="#000000" font-size="5px" font-weight="bold" font-family="'Helvetica Neue', Helvetica, Arial-Unicode, Arial, Sans-serif">from the Noun Project</text></svg>