<svg xmlns="http://www.w3.org/2000/svg" xmlns:xlink="http://www.w3.org/1999/xlink" xmlns:sketch="http://www.bohemiancoding.com/sketch/ns" viewBox="0 0 40 50" version="1.1" x="0px" y="0px"><title>piano_music_organ_keyboard</title><desc>Created with Sketch.</desc><g stroke="none" stroke-width="1" fill="none" fill-rule="evenodd" sketch:type="MSPage"><path d="M6.00292933,8 L9,8 L9,23.0006943 L12,23.0006946 L12,30.9993054 C12,31.5519738 11.5621186,32 10.9970707,32 L6.00292933,32 C5.44902676,32 5,31.5525308 5,30.9993054 L5,9.00069463 C5,8.44802625 5.43788135,8 6.00292933,8 Z M16.9970708,23.0006943 L16.9970707,8 L16,8 L16,23.0006943 L13,23.0006946 L13,30.9993054 C13,31.5519738 13.4378814,32 14.0029293,32 L18.9970707,32 C19.5509732,32 20,31.5525308 20,30.9993054 L20,23.0006946 L16.9970708,23.0006943 Z M24.9970708,23.0006943 L24.9970707,8 L24,8 L24,23.0006943 L21,23.0006946 L21,30.9993054 C21,31.5519738 21.4378814,32 22.0029293,32 L26.9970707,32 C27.5509732,32 28,31.5525308 28,30.9993054 L28,23.0006946 L24.9970708,23.0006943 Z M10,8 L15,8 L15,22 L10,22 L10,8 Z M34.9970707,8 L32,8 L32,23.0006943 L29,23.0006946 L29,30.9993054 C29,31.5519738 29.4378814,32 30.0029293,32 L34.9970707,32 C35.5509732,32 36,31.5525308 36,30.9993054 L36,9.00069463 C36,8.44802625 35.5621186,8 34.9970707,8 Z M18,8 L23,8 L23,22 L18,22 L18,8 Z M26,8 L31,8 L31,22 L26,22 L26,8 Z" fill="#000000" sketch:type="MSShapeGroup"/></g><text x="0" y="55" fill="#000000" font-size="5px" font-weight="bold" font-family="'Helvetica Neue', Helvetica, Arial-Unicode, Arial, Sans-serif">Created by Pham Thi Dieu Linh</text><text x="0" y="60" fill="#000000" font-size="5px" font-weight="bold" font-family="'Helvetica Neue', Helvetica, Arial-Unicode, Arial, Sans-serif">from the Noun Project</text></svg>