<svg xmlns="http://www.w3.org/2000/svg" xmlns:xlink="http://www.w3.org/1999/xlink" xmlns:sketch="http://www.bohemiancoding.com/sketch/ns" viewBox="0 0 40 50" version="1.1" x="0px" y="0px"><title>mandolin_string_instrument_music</title><desc>Created with Sketch.</desc><g stroke="none" stroke-width="1" fill="none" fill-rule="evenodd" sketch:type="MSPage"><path d="M22.0051608,5.97935681 L22.0051608,14.8869751 C25.0748616,17.8454004 30,27.417931 30,31.5 C30,36.5761449 25.9552873,40 20.5,40 C15.0447127,40 11,36.5761449 11,31.5 C11,27.4156426 15.9306619,17.8346661 19,14.8820059 L19,14.8820059 L19,6 L18,2 L20.5,0 L23,2 L22.0051608,5.97935681 Z M19,16.2002353 C16.3685364,19.369423 12,27.9605903 12,31.5 C12,35.5150049 14.8576935,38.3535818 19,38.9029602 L19,38.9029602 L19,37.1968384 C19,37.0881275 19.0865488,37 19.1968384,37 L21.8031616,37 C21.9118725,37 22,37.0865488 22,37.1968384 L22,38.9029602 C26.1423065,38.3535818 29,35.5150049 29,31.5 C29,27.9629031 24.637171,19.3806486 22.0051608,16.2064549 L22.0051608,18.2621159 C22.0051608,18.5362544 21.6752021,18.7638935 21.2681774,18.7638935 L19.7369834,18.7638935 C19.323141,18.7638935 19,18.53924 19,18.2621159 L19,16.2002353 L19,16.2002353 Z M15.1909256,31 L25.8090744,31 C25.9145197,31 26,31.0922852 26,31.1928101 L26,31.8071899 C26,31.913676 25.9049044,32 25.8090744,32 L15.1909256,32 C15.0854803,32 15,31.9077148 15,31.8071899 L15,31.1928101 C15,31.086324 15.0950956,31 15.1909256,31 Z M20.5,27 C22.4329966,27 24,25.8807119 24,24.5 C24,23.1192881 22.4329966,22 20.5,22 C18.5670034,22 17,23.1192881 17,24.5 C17,25.8807119 18.5670034,27 20.5,27 Z" fill="#000000" sketch:type="MSShapeGroup" transform="translate(20.500000, 20.000000) rotate(45.000000) translate(-20.500000, -20.000000) "/></g><text x="0" y="55" fill="#000000" font-size="5px" font-weight="bold" font-family="'Helvetica Neue', Helvetica, Arial-Unicode, Arial, Sans-serif">Created by Pham Thi Dieu Linh</text><text x="0" y="60" fill="#000000" font-size="5px" font-weight="bold" font-family="'Helvetica Neue', Helvetica, Arial-Unicode, Arial, Sans-serif">from the Noun Project</text></svg>