<svg xmlns="http://www.w3.org/2000/svg" xmlns:xlink="http://www.w3.org/1999/xlink" xmlns:sketch="http://www.bohemiancoding.com/sketch/ns" viewBox="0 0 40 50" version="1.1" x="0px" y="0px"><title>music_organ_keyboard_instrument_audio_sound</title><desc>Created with Sketch.</desc><g stroke="none" stroke-width="1" fill="none" fill-rule="evenodd" sketch:type="MSPage"><path d="M4.99278641,7 L35.0072136,7 C35.5555144,7 36,7.45127869 36,8.00329963 L36,31.9967004 C36,32.5508075 35.5476379,33 35.0072136,33 L4.99278641,33 C4.44448561,33 4,32.5487213 4,31.9967004 L4,8.00329963 C4,7.44919255 4.45236206,7 4.99278641,7 Z M6,17 L9,17 L9,26 L11,26 L11,17 L13,17 L13,26 L15,26 L15,17 L17,17 L17,26 L19,26 L19,17 L25,17 L25,26 L27,26 L27,17 L29,17 L29,26 L31,26 L31,17 L34,17 L34,31 L6,31 L6,17 Z M6,10 L8,10 L8,12 L6,12 L6,10 Z M10,10 L12,10 L12,12 L10,12 L10,10 Z M28,10 L30,10 L30,12 L28,12 L28,10 Z M32,10 L34,10 L34,12 L32,12 L32,10 Z" fill="#000000" sketch:type="MSShapeGroup"/></g><text x="0" y="55" fill="#000000" font-size="5px" font-weight="bold" font-family="'Helvetica Neue', Helvetica, Arial-Unicode, Arial, Sans-serif">Created by Pham Thi Dieu Linh</text><text x="0" y="60" fill="#000000" font-size="5px" font-weight="bold" font-family="'Helvetica Neue', Helvetica, Arial-Unicode, Arial, Sans-serif">from the Noun Project</text></svg>