<svg xmlns="http://www.w3.org/2000/svg" xmlns:xlink="http://www.w3.org/1999/xlink" xmlns:sketch="http://www.bohemiancoding.com/sketch/ns" viewBox="0 0 40 50" version="1.1" x="0px" y="0px"><title>triangle_instrument_music</title><desc>Created with Sketch.</desc><g stroke="none" stroke-width="1" fill="none" fill-rule="evenodd" sketch:type="MSPage"><path d="M19,13.5084266 L19,9.99980749 C19,9.44371665 18.5522847,9 18,9 C17.4438648,9 17,9.44762906 17,9.99980749 L17,13.6823417 C16.7985874,13.8503904 16.6136,14.0679144 16.4546768,14.3349052 L6.00053174,31.897869 C5.13901442,33.3452181 5.93717466,34.75 7.6222232,34.75 L25.9033239,34.75 C26.3175375,34.75 26.6533239,34.4142136 26.6533239,34 C26.6533239,33.5857864 26.3175375,33.25 25.9033239,33.25 L7.6222232,33.25 C7.10099284,33.25 7.02299736,33.1127706 7.28947107,32.6650948 L17.7436161,15.102131 C18.0202454,14.6373939 18.224181,14.6378618 18.50307,15.1063954 L27.1453533,29.6254313 C27.3572169,29.981362 27.8175051,30.0981516 28.1734359,29.886288 C28.5293666,29.6744245 28.6461562,29.2141362 28.4342926,28.8582055 L19.7920094,14.3391696 C19.569858,13.9659553 19.2971384,13.6890486 19,13.5084266 Z M33.0999761,30.3344559 C33.6977772,30.7667178 34.0999756,31.5746473 34.0999756,32.5 C34.0999756,33.8807119 33.2045451,35 32.0999756,35 C30.9954061,35 30.0999756,33.8807119 30.0999756,32.5 C30.0999756,31.5746473 30.502174,30.7667178 31.099975,30.3344559 L31.0999756,6.00307055 C31.0999756,5.44908998 31.5438404,5 32.0999756,5 C32.6522603,5 33.0999756,5.43891776 33.0999756,6.00307055 L33.0999756,30.3344534 L33.0999761,30.3344559 Z" fill="#000000" sketch:type="MSShapeGroup"/></g><text x="0" y="55" fill="#000000" font-size="5px" font-weight="bold" font-family="'Helvetica Neue', Helvetica, Arial-Unicode, Arial, Sans-serif">Created by Pham Thi Dieu Linh</text><text x="0" y="60" fill="#000000" font-size="5px" font-weight="bold" font-family="'Helvetica Neue', Helvetica, Arial-Unicode, Arial, Sans-serif">from the Noun Project</text></svg>