<svg xmlns="http://www.w3.org/2000/svg" xmlns:xlink="http://www.w3.org/1999/xlink" xmlns:sketch="http://www.bohemiancoding.com/sketch/ns" viewBox="0 0 40 50" version="1.1" x="0px" y="0px"><title>tuba_instrument_music_brass_wind_sound</title><desc>Created with Sketch.</desc><g stroke="none" stroke-width="1" fill="none" fill-rule="evenodd" sketch:type="MSPage"><path d="M23.0400023,22 L23.0400023,25.4970806 C23.0400023,26.3265404 23.7124133,27 24.5400023,27 C25.3737198,27 26.0400023,26.3307085 26.0400023,25.495389 L26.0400023,24.5 L28.0400023,24.5 L28.0400023,25.495389 C28.0400023,27.4332656 26.4803116,29 24.5400023,29 C22.6071455,29 21.0400023,27.4304128 21.0400023,25.4970806 L21.0400023,22 L19.0400023,22 L19.0400023,27 C19.0400023,27 19.0400023,32 24.0400023,32 C29.0400023,32 29.0400023,27 29.0400023,27 L29.0400023,24.5 L29.0400023,20 C29.0400023,20 29.0400023,17 26.0400023,17 C23.0400023,17 23.0400023,20 23.0400023,20 L23.5382041,20 C26.0231792,20 28.0400023,22.0173522 28.0400023,24.5 L26.0400023,24.5 C26.0400023,23.1218042 24.9184923,22 23.5382041,22 L23.0400023,22 Z M21.0626651,20 C21.3167056,17.1979489 23.6749622,15 26.5400023,15 C29.575997,15 32.0400023,17.465918 32.0400023,20.5 L32.0400023,24.5 L32.0400023,27 C32.0400023,27 32.0400023,36 23.0400023,36 C14.0400023,36 14.0400023,27 14.0400023,27 L14.0400023,22 L9.04000233,22 L9.04000233,23 L8.04000233,23 L8.04000233,19 L9.04000233,19 L9.04000233,20 L14.0400023,20 L14.0400023,17 C14.0400021,13 8.22745689,5.59843481 8.22745689,5.59843481 C7.57164385,4.71564364 7.93092773,4 9.03742424,4 L24.0425804,4 C25.1457261,4 25.5023472,4.71089576 24.8525477,5.59843481 C24.8525477,5.59843481 19.0400022,13 19.0400023,17 L19.0400023,20 L21.0626651,20 Z" fill="#000000" sketch:type="MSShapeGroup"/></g><text x="0" y="55" fill="#000000" font-size="5px" font-weight="bold" font-family="'Helvetica Neue', Helvetica, Arial-Unicode, Arial, Sans-serif">Created by Pham Thi Dieu Linh</text><text x="0" y="60" fill="#000000" font-size="5px" font-weight="bold" font-family="'Helvetica Neue', Helvetica, Arial-Unicode, Arial, Sans-serif">from the Noun Project</text></svg>